<svg id="Capa_1" data-name="Capa 1" xmlns="http://www.w3.org/2000/svg" xmlns:xlink="http://www.w3.org/1999/xlink" viewBox="0 0 153.69 116.62"><defs><style>.cls-1{fill:#fec403;}.cls-2{fill:none;}.cls-3{fill:#6d6d6d;}.cls-4{fill:url(#Degradado_sin_nombre_14);}.cls-5{fill:url(#Degradado_sin_nombre_8);}.cls-6{fill:#0f4020;}.cls-7{fill:url(#Degradado_sin_nombre_20);}</style><radialGradient id="Degradado_sin_nombre_14" cx="71.68" cy="54.3" r="25.57" gradientTransform="translate(0 2.86) scale(1 0.95)" gradientUnits="userSpaceOnUse"><stop offset="0.25" stop-color="#ff0"/><stop offset="1" stop-color="#fec403"/></radialGradient><linearGradient id="Degradado_sin_nombre_8" x1="78.34" y1="39.09" x2="78.34" y2="118.93" gradientUnits="userSpaceOnUse"><stop offset="0" stop-color="#8cc63f"/><stop offset="1" stop-color="#8c6239"/></linearGradient><linearGradient id="Degradado_sin_nombre_20" x1="1320.91" y1="57.67" x2="1290.48" y2="57.67" gradientTransform="matrix(-1, 0, 0, 1, 1438.95, 0)" gradientUnits="userSpaceOnUse"><stop offset="0" stop-color="#9c4020"/><stop offset="1" stop-color="#0f4020"/></linearGradient></defs><path class="cls-1" d="M43.05,83.27l0,.1s0,0,0,0,0,0,.06,0Z" transform="translate(-1.31 -16.84)"/><polygon class="cls-2" points="65.98 36.92 56.71 33.91 54.55 31.15 50.88 32.58 46.58 40.43 41.72 41.91 37.06 48.91 41.89 47.08 36.33 56.24 52.77 43.74 52.77 48.91 56.88 43.02 61.81 50.07 60.54 43.02 65.25 47.24 65.25 50.41 72.89 54.88 68.89 48.91 73.25 47.74 65.98 36.92"/><polygon class="cls-2" points="50.05 51.57 50.05 48.24 45.05 52.68 50.05 51.57"/><polygon class="cls-2" points="122.09 60.79 116.17 54.88 110.16 49.41 106.67 43.69 103.01 43.69 97.7 37.42 94.12 40.43 102.68 48.24 106.17 48.24 108.34 52.68 115.17 56.9 120.83 62.91 124.86 65.23 130.15 69.89 127.16 64.37 122.09 60.79"/><path class="cls-2" d="M49.63,78.86l.49.51,1-1.79Z" transform="translate(-1.31 -16.84)"/><path class="cls-2" d="M52.6,81.59c.53.42,1.06.83,1.61,1.21l8.15-5.22Z" transform="translate(-1.31 -16.84)"/><polygon class="cls-2" points="50.05 51.57 50.05 48.24 45.05 52.68 50.05 51.57"/><path class="cls-2" d="M103,64.22l.95.86h3.5l2.16,4.45,6.83,4.21,5.66,6,4,2.32,5.29,4.67-3-5.53-5.07-3.58-5.92-5.9-6-5.48L108,60.54h-1a12,12,0,0,0-2.46,1.64A4.81,4.81,0,0,0,103,64.22Z" transform="translate(-1.31 -16.84)"/><path class="cls-2" d="M88.48,80.19l-5.16-2-2.59-2.59-.14-2.44-1.72-3,1.87-.86,2.58-2.58,2.73-.86,6-8.33,4.74-3.88,2.73-2.44,1.31,1.46a30,30,0,0,0-59.53,4.71l.35-.43,2.44-.71,2.3-1,3.44-5.89,2.44-3,3.88-1.73,4,5,8.19,3L79.16,67l-4.27,1.43,3.78,5.75v1.11l2.78,4.34,6.32,2,1.55.58c.58-.44,1.15-.9,1.7-1.38Z" transform="translate(-1.31 -16.84)"/><path class="cls-2" d="M69,88.09l.77,0L69,86.93Z" transform="translate(-1.31 -16.84)"/><path class="cls-2" d="M95.43,57.27l5.62,5.13a30,30,0,0,0,.3-4.37c0-.34,0-.68,0-1L99,54.26Z" transform="translate(-1.31 -16.84)"/><path class="cls-2" d="M99.51,87.22l-.64-.68c-.65-.31-1.29-.6-1.93-.88Z" transform="translate(-1.31 -16.84)"/><path class="cls-2" d="M49.25,84.49a19.86,19.86,0,0,0-3,.94L50,85.5l1.83-1.18A7,7,0,0,0,49.25,84.49Z" transform="translate(-1.31 -16.84)"/><path class="cls-2" d="M38.37,65.75l1.48-.56A3.69,3.69,0,0,0,39.56,64Z" transform="translate(-1.31 -16.84)"/><path class="cls-2" d="M54.08,65.75l4.11-5.89,4.93,7.06-1.27-7.06,4.71,4.22v3.17l7.63,4.48-4-6,4.36-1.17L67.29,53.76l-9.27-3L55.86,48l-3.67,1.43-4.3,7.85L43,58.76,41.47,61.1a31.58,31.58,0,0,0,.5,3.28l1.23-.46-1,1.58a28.12,28.12,0,0,0,1,3.3l10.8-8.21Z" transform="translate(-1.31 -16.84)"/><path class="cls-1" d="M41.33,57.35a30,30,0,0,1,59.53-4.71L106,58.36l3.5,1c1-.41,2.06-.78,3.14-1.19-.37-.13-.63-.21-.88-.31a26.19,26.19,0,0,1-6.54-3.11c-2.68-1.94-3.08-4.07-1.29-6.86a23.82,23.82,0,0,1,4.17-4.63l1.29-1.16-2.18.15a19.71,19.71,0,0,1-6.63-.46c-2.4-.68-3.41-2.3-3.07-4.78A24.12,24.12,0,0,1,100,30.11c.15-.31.45-.58.32-1l-1,.43a25.28,25.28,0,0,1-6.47,2.38c-2.78.5-4.5-.61-5.21-3.36a19,19,0,0,1-.41-4.75c0-1.17.1-2.35.17-3.73l-.85,1a28.07,28.07,0,0,1-4.34,4.1,10.36,10.36,0,0,1-1.08.69c-2.38,1.33-4.35.95-6-1.18a21.57,21.57,0,0,1-3-5.82c-.25-.63-.47-1.26-.76-2-.14.43-.23.7-.33,1a27.09,27.09,0,0,1-3,6.39c-1.93,2.75-4.17,3.18-7,1.35a23.43,23.43,0,0,1-4.38-3.94l-1.35-1.49c0,.58,0,.95.07,1.31a28.28,28.28,0,0,1,0,5.89c-.47,4-2.53,5.4-6.37,4.44a28.79,28.79,0,0,1-5.86-2.34,1.29,1.29,0,0,0-.85-.26c.19.38.36.7.51,1a25.17,25.17,0,0,1,2.35,6.3c.58,3-.62,4.85-3.65,5.47a21.85,21.85,0,0,1-6,.27c-.63,0-1.26-.07-2.12-.12a40.3,40.3,0,0,1,3.49,3.28A13.47,13.47,0,0,1,39.36,49a3.94,3.94,0,0,1-1,5,11.33,11.33,0,0,1-2.66,1.85A40.64,40.64,0,0,1,30,58.16l1.25.45a25.64,25.64,0,0,1,6,2.84l.38.28,1-1.07Z" transform="translate(-1.31 -16.84)"/><path class="cls-1" d="M42.29,87.16h0Z" transform="translate(-1.31 -16.84)"/><path class="cls-1" d="M100.32,29.11v0h0Z" transform="translate(-1.31 -16.84)"/><path class="cls-3" d="M44.7,85.4l-.84,1.12c.81-.39,1.62-.76,2.44-1.09Z" transform="translate(-1.31 -16.84)"/><path class="cls-3" d="M100.86,52.64a29.82,29.82,0,0,1,.47,4.36l3,3.54h2.62c.28-.16.57-.3.86-.44.56-.28,1.13-.52,1.71-.76l-3.5-1Z" transform="translate(-1.31 -16.84)"/><path class="cls-3" d="M50.12,79.37l-2.48,4.26,5-2A29.08,29.08,0,0,1,50.12,79.37Z" transform="translate(-1.31 -16.84)"/><path class="cls-2" d="M98.29,59.88l5.7,5.2h3.5l2.16,4.45,6.83,4.21,5.66,6,4,2.32,5.29,4.67-3-5.53-5.07-3.58-5.92-5.9-6-5.48L108,60.54h-3.67L99,54.26l-.85.71a25.74,25.74,0,0,1,.18,3.18C98.34,58.73,98.32,59.31,98.29,59.88Z" transform="translate(-1.31 -16.84)"/><path class="cls-2" d="M46.81,69.43l-.1-.22-.35.32Z" transform="translate(-1.31 -16.84)"/><path class="cls-2" d="M87.77,81.62l6.53,2.44,5.21,3.16-5.3-5.6-5.73-1.43-1-.38c-.56.41-1.14.81-1.73,1.18Z" transform="translate(-1.31 -16.84)"/><path class="cls-4" d="M72.07,31.16A27,27,0,0,0,44.43,56.07l2-.87,3.44-5.89,2.44-3,3.88-1.73,4,5,8.19,3,5,6.71a24.45,24.45,0,0,1,2.75,2.91,19.23,19.23,0,0,1,4.28,3c.83.63,1.72,1.16,2.52,1.82l.35-.35,2.73-.86,6-8.33,4.74-3.88,1-.89A27.09,27.09,0,0,0,72.07,31.16Z" transform="translate(-1.31 -16.84)"/><path class="cls-5" d="M147.42,99.65l-8.53-9.09-4.59-4.63-4.46-5.6L126,77.59l-7.9-7.89-5.6-4.59-2.87-5.75-3.59-1-6.46-7.18-2.73,2.44L92.08,57.5l-6,8.33-2.75.74L68.39,52.62l-8.19-3-4-5L52.3,46.3l-2.44,3L46.42,55.2l-2.3,1-2.44.71-3,3.74S35.5,64.1,35.07,64.1s-2.87,3.45-2.87,3.45l-4.31,6.6L26.6,75.73l-2.3,3.45L18.7,78l-1.43,2.58L15,83.05,4.06,102.29l5-2.05-1,2.84,2.07,2.84,1.49-1.66L15.69,103l5.45-6,2.18,5.52L34.38,97.9,39.07,91l2.46-5.39,9.63-8.06-3.52,6,14.72-6L50,85.5l-5.31-.1-2,2.67-5.3,8.49,8.13,2.27-2.09,0-4.95-.54-13,4.92-2.3,3.42-1.43,3.31,12.2-2,10-1.32,5,2.18,6.31-.14.43-5.75L60,101l-.17-3.31,3.54-4.59L69,91.05V86.93l12.92,20.28,2.07-4.13,6.19-1.55,8,5.68,2.69-3.34V101l.15-3.45L98,94.4l-4.46-3,6,.86,3.44,3,3.45,1,2.44,3.41,10.19,1.15L118.93,97l6.09,7.54,9,3.2,7-1.29,6.19,3.36,3.88,4.13,1.55-5.17ZM51.36,68.42l-5,1.11,5-4.45Zm22.83,3.31-7.63-4.48V64.08l-4.71-4.22,1.27,7.06-4.93-7.06-4.11,5.89V60.59L37.64,73.08l5.56-9.16-4.83,1.83,4.66-7,4.86-1.49,4.3-7.85L55.86,48,58,50.75l9.27,3,7.27,10.82L70.2,65.75ZM94.3,84.06l-6.53-2.44-6.32-2-2.78-4.34V74.16l-2-5.16,6-2.07-2,2.34-1.87.86,1.72,3,.14,2.44,2.59,2.59,5.16,2,5.73,1.43,5.3,5.6Zm31.87-2-4-2.32-5.66-6-6.83-4.21-2.16-4.45H104l-8.56-7.81,3.58-3,5.31,6.28H108l3.47,5.71,6,5.48,5.92,5.9,5.07,3.58,3,5.53Z" transform="translate(-1.31 -16.84)"/><path class="cls-6" d="M9.87,106.75a8.87,8.87,0,0,1,2.53,2.64,10.51,10.51,0,0,1,1.41,3.44,15.48,15.48,0,0,1,.36,3.73,15.57,15.57,0,0,1-.52,3.69,19.21,19.21,0,0,1-3.55,6.87,11.61,11.61,0,0,1-2.67,2.57,5.51,5.51,0,0,1-1.66.75A3,3,0,0,1,4,130.35a.85.85,0,0,1-.54-.55.65.65,0,0,1,.17-.71l0,0a.08.08,0,0,1,0,0l0,0a7.06,7.06,0,0,1-1-2.08A16.91,16.91,0,0,1,2,124.29q-.25-1.77-.61-6.19a32.07,32.07,0,0,1,.39-6.49,29.39,29.39,0,0,1,.57-3,5.93,5.93,0,0,1,1.32-2.89A1.13,1.13,0,0,1,5,105.51a5.69,5.69,0,0,1,2.45.15A8.12,8.12,0,0,1,9.87,106.75Zm-1.13,18a18.44,18.44,0,0,0,2.79-5.88,12.47,12.47,0,0,0,.16-6.15,9.33,9.33,0,0,0-.79-2.13,9.65,9.65,0,0,0-1.26-1.92,6.63,6.63,0,0,0-1.71-1.46,5,5,0,0,0-2-.68c0,.11.06.22.08.33a2.2,2.2,0,0,1,0,.37c0,.13,0,.25,0,.35a2.51,2.51,0,0,1,0,.39c0,.15,0,.27,0,.35s0,.21,0,.39S6,109,6,109a2.8,2.8,0,0,1,0,.38c0,.19,0,.3,0,.33l-.12.93c0,.39-.1.75-.14,1.08s-.08.63-.11.92q-.12.94-.27,2.85c-.11,1.27-.2,2.22-.26,2.86a42.73,42.73,0,0,0-.28,5.67v1.08c0,.38,0,.74,0,1.07a10.12,10.12,0,0,0,.06,1.06A8.36,8.36,0,0,0,5,128.32l.27-.12a6.86,6.86,0,0,0,1.22-.87A14.85,14.85,0,0,0,8.74,124.72Z" transform="translate(-1.31 -16.84)"/><path class="cls-6" d="M26.1,126.26a.53.53,0,0,1,.5.25.32.32,0,0,1-.05.5,11.33,11.33,0,0,1-4,1.92,7.18,7.18,0,0,1-3.8-.17,5.1,5.1,0,0,1-1.64-.87,5.36,5.36,0,0,1-1.24-1.41,4.84,4.84,0,0,1-.59-3.42A5.07,5.07,0,0,1,17,120a4.36,4.36,0,0,1,3.1-1.2,3.34,3.34,0,0,1,1.68.48,2.92,2.92,0,0,1,1.18,1.26,2.52,2.52,0,0,1,.25,1.59,2.25,2.25,0,0,1-.78,1.37,5,5,0,0,1-4.41,1,.17.17,0,0,0,0,.08l0,.07a4.6,4.6,0,0,0,.14.47,3.39,3.39,0,0,0,.22.38l.06.08.15.17.2.2.08.06a4,4,0,0,0,.85.51,5.32,5.32,0,0,0,1,.28,10.22,10.22,0,0,0,1.06.1,6.89,6.89,0,0,0,1.1-.08l1.1-.19,1.1-.23Zm-8-3.27a4.12,4.12,0,0,0-.16.65s0,0,0,.06a.43.43,0,0,1,0,0,3.89,3.89,0,0,0,1.52,0,4.6,4.6,0,0,0,1.39-.53,1.49,1.49,0,0,0,.78-1,1,1,0,0,0-.15-.75,1.06,1.06,0,0,0-.57-.49,1.36,1.36,0,0,0-.93,0,3,3,0,0,0-.89.53c-.19.19-.32.33-.41.44l0,0h0s0,0,0,0l-.05.08-.06.09q-.12.18-.27.45a.34.34,0,0,1,0,.1.3.3,0,0,1,0,.1A.31.31,0,0,0,18.13,123Z" transform="translate(-1.31 -16.84)"/><path class="cls-6" d="M33.8,125.1a3.65,3.65,0,0,1,.9,1.33,2.3,2.3,0,0,1,.11,1.48,2.35,2.35,0,0,1-.62,1.15,3.34,3.34,0,0,1-1.12.75,3.62,3.62,0,0,1-2.57.11,4.5,4.5,0,0,1-1.3-.64,1.83,1.83,0,0,1-.76-1,.57.57,0,0,1,.1-.47.4.4,0,0,1,.42-.18,3.42,3.42,0,0,1,.71.2c.29.1.55.18.8.24a1.68,1.68,0,0,0,.74,0,1.56,1.56,0,0,0,.78-.33.9.9,0,0,0,.24-.29.08.08,0,0,1,0,0l0,0,0-.12a.83.83,0,0,0-.34-.57l-.43-.3a4.68,4.68,0,0,1-.41-.27,5.86,5.86,0,0,1-1.9-2,5.65,5.65,0,0,1-.66-2.47,4.71,4.71,0,0,1,.6-2.47,2.59,2.59,0,0,1,2.07-1.41,2.42,2.42,0,0,1,1.12.23,1.65,1.65,0,0,1,.79.73.43.43,0,0,1-.08.53.37.37,0,0,1-.52,0c-.6-.45-1.05-.28-1.35.52a3.89,3.89,0,0,0-.27,2.11,3.26,3.26,0,0,0,.84,1.7c.08.09.15.15.2.2s-.06,0,0,0l.08.06.32.2.27.17A9,9,0,0,1,33.8,125.1Z" transform="translate(-1.31 -16.84)"/><path class="cls-6" d="M43.28,116.41a.89.89,0,0,1,.57.55.69.69,0,0,1-.17.75,2.35,2.35,0,0,1-1,.63l-.52.14a4.68,4.68,0,0,0-.51.14l-.9.24c.13,1.78.2,2.69.21,2.74.21,2.14.35,4,.42,5.49,0,.77.06,1.42.07,1.93s0,1.13-.1,1.83a9.86,9.86,0,0,1-.38,1.89.89.89,0,0,1-.44.56,1.18,1.18,0,0,1-.68.16,1.23,1.23,0,0,1-.66-.25,1.07,1.07,0,0,1-.39-.62c-.08-.37-.15-.74-.21-1.12s-.1-.8-.14-1.24-.06-.81-.08-1.1,0-.71-.07-1.24,0-.92-.06-1.13c0-.62-.1-1.53-.19-2.75s-.15-2.14-.19-2.75q0-.23,0-.69c0-.31,0-.53,0-.69l-.07,0-.07,0c-.22.1-.55.24-1,.4a.41.41,0,0,1-.21.1h0a3.5,3.5,0,0,1-.62.23.63.63,0,0,1-.2,0h-.07v0a.7.7,0,0,1-.56-.32.61.61,0,0,1,0-.65.93.93,0,0,1,.21-.29l.34-.26.3-.23a6.32,6.32,0,0,1,1-.67c.5-.28.79-.45.88-.49,0-1.12,0-1.84,0-2.16,0-1.18.06-2.21.14-3.08a11.49,11.49,0,0,1,.51-2.52.69.69,0,0,1,.24-.44.72.72,0,0,1,.47-.16,1.54,1.54,0,0,1,.52.09,1,1,0,0,1,.46.33,1,1,0,0,1,.23.53c.07.73.13,1.76.18,3.1s.08,2.21.11,2.61c0,.06,0,.14,0,.25s0,.2,0,.26l.36-.12a9.39,9.39,0,0,1,1.12-.25A2.53,2.53,0,0,1,43.28,116.41Z" transform="translate(-1.31 -16.84)"/><path class="cls-6" d="M55.12,126.26a.53.53,0,0,1,.5.25.32.32,0,0,1,0,.5,11.25,11.25,0,0,1-4,1.92,7.18,7.18,0,0,1-3.8-.17,5.1,5.1,0,0,1-1.64-.87,5.36,5.36,0,0,1-1.24-1.41,4.84,4.84,0,0,1-.59-3.42A5.07,5.07,0,0,1,46,120a4.36,4.36,0,0,1,3.1-1.2,3.34,3.34,0,0,1,1.68.48,2.92,2.92,0,0,1,1.18,1.26,2.52,2.52,0,0,1,.25,1.59,2.25,2.25,0,0,1-.78,1.37,5,5,0,0,1-4.41,1,.17.17,0,0,0,0,.08l0,.07a4.6,4.6,0,0,0,.14.47,3.39,3.39,0,0,0,.22.38l.06.08.15.17.2.2.08.06a4,4,0,0,0,.85.51,5.32,5.32,0,0,0,1,.28,10.22,10.22,0,0,0,1.06.1,6.89,6.89,0,0,0,1.1-.08l1.1-.19,1.1-.23Zm-8-3.27a5.62,5.62,0,0,0-.16.65s0,0,0,.06a.43.43,0,0,1,0,0,3.89,3.89,0,0,0,1.52,0,4.6,4.6,0,0,0,1.39-.53,1.49,1.49,0,0,0,.78-1,1,1,0,0,0-.15-.75,1.06,1.06,0,0,0-.57-.49,1.36,1.36,0,0,0-.93,0,3,3,0,0,0-.89.53c-.19.19-.32.33-.41.44l0,0h0s0,0,0,0l0,.08-.06.09q-.12.18-.27.45a.34.34,0,0,1,0,.1.3.3,0,0,1-.05.1A.31.31,0,0,0,47.15,123Z" transform="translate(-1.31 -16.84)"/><path class="cls-6" d="M61.68,107.85a3.73,3.73,0,0,1,.16,1,8.24,8.24,0,0,1,0,.91c0,.19-.06.55-.12,1.06,0,.31-.09.77-.18,1.39l-.18,1.39c-.06.55-.15,1.41-.25,2.58s-.2,2.06-.27,2.67a39.91,39.91,0,0,0-.3,5.23v1c0,.48,0,.85,0,1.1a9.76,9.76,0,0,0,.26,2,.68.68,0,0,1-.15.72.8.8,0,0,1-.68.17,1.05,1.05,0,0,1-.65-.39,6.6,6.6,0,0,1-1-1.93,16.19,16.19,0,0,1-.55-2.46c-.16-1-.36-2.92-.59-5.75a26.57,26.57,0,0,1,.35-5.91c.18-1.17.37-2.13.56-2.86a5.43,5.43,0,0,1,1.32-2.75,1.21,1.21,0,0,1,.89-.33,1.51,1.51,0,0,1,.83.36,1.69,1.69,0,0,1,.53.74h0S61.67,107.85,61.68,107.85Z" transform="translate(-1.31 -16.84)"/><path class="cls-6" d="M67.83,107.85a3.7,3.7,0,0,1,.17,1,8.24,8.24,0,0,1,0,.91c0,.19-.06.55-.12,1.06l-.18,1.39-.18,1.39c-.06.55-.15,1.41-.25,2.58s-.2,2.06-.27,2.67a39.91,39.91,0,0,0-.3,5.23v2.12c0,.25,0,.57.08,1a6.47,6.47,0,0,0,.19,1.06.68.68,0,0,1-.15.72.8.8,0,0,1-.68.17,1.05,1.05,0,0,1-.65-.39,6.37,6.37,0,0,1-1-1.93,15.07,15.07,0,0,1-.55-2.46c-.16-1-.36-2.92-.6-5.75a26.08,26.08,0,0,1,.36-5.91c.18-1.17.36-2.13.55-2.86a5.6,5.6,0,0,1,1.32-2.75,1.25,1.25,0,0,1,.9-.33,1.51,1.51,0,0,1,.83.36,1.6,1.6,0,0,1,.52.74h0Z" transform="translate(-1.31 -16.84)"/><path class="cls-6" d="M76,124.43a4.75,4.75,0,0,1,0,1.84,3.39,3.39,0,0,1-.77,1.58,3,3,0,0,1-1.51.93,3.39,3.39,0,0,1-2.74-.46,4.79,4.79,0,0,1-1.93-2.26,4.39,4.39,0,0,1-.34-1.92,5.27,5.27,0,0,1,.44-1.87,5.54,5.54,0,0,1,1-1.62,3.67,3.67,0,0,1,1.31-1,1.87,1.87,0,0,1,1.45,0,2.11,2.11,0,0,1,.7.42,1.38,1.38,0,0,1,.42.65s0,.07,0,.12v.11l.39.49A7.37,7.37,0,0,1,76,124.43Zm-1.84.91v-.2a3.9,3.9,0,0,0,0-.4s0-.12-.07-.28-.1-.31-.16-.47a3.15,3.15,0,0,0-.22-.46l-.21-.38c-.05-.08-.15-.23-.3-.44l-.25-.38-.56-.81-.05,0s0,0,0,0a4.14,4.14,0,0,0-1.07,1.59A4,4,0,0,0,71,124.9V125l0,0a.84.84,0,0,0,0,.1.25.25,0,0,0,0,.1,1.85,1.85,0,0,0,.06.2c0,.09.06.16.07.2l0,0a.56.56,0,0,1,0,.08.34.34,0,0,0,0,.1l.11.17.09.12a.3.3,0,0,0,.06.09l0,.07,0,0s0,0,0,.05l0,0,.07.06.07,0s0,0,0,0l0,0,.29.17.12,0,.12,0a1.45,1.45,0,0,0,.6,0,1.05,1.05,0,0,0,.56-.22,1.39,1.39,0,0,0,.21-.2l0,.06a.3.3,0,0,1,.06-.09,2.77,2.77,0,0,0,.19-.34h0a.08.08,0,0,0,0,0,0,0,0,0,0,0,0,1.31,1.31,0,0,0,0-.15c0-.11.06-.25.09-.4v0a0,0,0,0,0,0,0Z" transform="translate(-1.31 -16.84)"/><path class="cls-6" d="M97.68,126.72c0,.07,0,.23.11.5s.09.46.11.59,0,.31.07.53a4,4,0,0,1,0,.59,2.68,2.68,0,0,1-.11.49,1.3,1.3,0,0,1-.63.79,1.19,1.19,0,0,1-.87.07,1.76,1.76,0,0,1-.78-.47v0s0,0,0,0A3.45,3.45,0,0,1,95,129a8.63,8.63,0,0,1-.32-.82c-.06-.2-.16-.53-.28-1,0-.11-.25-.94-.64-2.49-.09-.31-.21-.77-.37-1.39l-.36-1.39H93c-.22,0-1.17.2-2.84.46l-1.4.24c-.68.13-1.21.21-1.58.26s-.74.08-1.12.1c-.44,2.66-.81,4.83-1.12,6.48a.76.76,0,0,1-.67.69,1.25,1.25,0,0,1-1-.33,1,1,0,0,1-.36-1c.27-1.42.69-3.54,1.26-6.38h0l0,0a.77.77,0,0,1-.28-.75.81.81,0,0,1,.44-.64h0a.46.46,0,0,1,.1,0l.09,0c.34-1.7.58-2.92.71-3.65.49-2.65.81-4.3.94-5,0-.08.06-.27.12-.56l.12-.6c0-.11.06-.3.12-.56s.1-.47.13-.61.08-.32.14-.55.11-.43.16-.59.11-.34.18-.54.13-.38.2-.56.23-.56.31-.73a3.68,3.68,0,0,1,.36-.63,2.46,2.46,0,0,1,.51-.58,1.53,1.53,0,0,1,1-.37,1.86,1.86,0,0,1,1,.24A2.56,2.56,0,0,1,91,106a3.89,3.89,0,0,1,.41.37,3.11,3.11,0,0,1,.37.49l.31.49a5.06,5.06,0,0,1,.28.57c.12.25.2.43.24.53s.13.29.24.57.18.46.21.52c.18.43.35.87.51,1.31s.33.92.49,1.44.3,1,.41,1.31.24.83.41,1.46l.36,1.32c.07.26.19.75.38,1.48s.3,1.18.34,1.36.09.33.15.59.11.46.14.6a.77.77,0,0,1,.18.72c.39,1.58.64,2.6.74,3.08C97.46,125.68,97.64,126.51,97.68,126.72ZM90,119.8c.92,0,1.74,0,2.48,0-.24-.9-.63-2.3-1.18-4.21s-.95-3.37-1.22-4.38c-.34-1.27-.53-2-.59-2.16s-.09-.23-.22-.57a.35.35,0,0,0-.06.09l0,.09a8,8,0,0,0-.34.87c-.2.61-.38,1.24-.54,1.91q-.84,3.41-1.8,9l.53-.15A15.06,15.06,0,0,1,90,119.8Z" transform="translate(-1.31 -16.84)"/><path class="cls-6" d="M111.73,126.6a6.53,6.53,0,0,1,.06,1.49,2.52,2.52,0,0,1-.2.87c-.07.09-.14.19-.22.28a1.42,1.42,0,0,0-.16.19.91.91,0,0,1-.73.4.88.88,0,0,1-.78-.32l-.29-.32a2.65,2.65,0,0,1-.33-.41,3.68,3.68,0,0,1-.3-.89,9.81,9.81,0,0,1-.12-1.86c0-.19,0-.74,0-1.65a3.56,3.56,0,0,0,0-.37v-.37s0-.18.06-.49v-.06a1.27,1.27,0,0,0-.06-.39.18.18,0,0,0,0,0,.16.16,0,0,0,0-.06h-.12a1.18,1.18,0,0,0-.45.19,4.86,4.86,0,0,0-1.45,1.29A20.79,20.79,0,0,0,105.4,126c-.51.83-.87,1.39-1.06,1.67l-.29.41a2.7,2.7,0,0,1-.3.34,2.06,2.06,0,0,1-.41.29,1.6,1.6,0,0,1-1.67-.08,4.68,4.68,0,0,1-1.58-2.8c-.72-2.6-.72-4.59,0-6a.92.92,0,0,1,.74-.5,1.2,1.2,0,0,1,.89.18,1.47,1.47,0,0,1,.6.76,9.28,9.28,0,0,1,.42,2c0,.06,0,.19,0,.39s0,.33,0,.38.06.36.09.56c0,0,0,.07,0,.11a.17.17,0,0,0,0,.08v0c0,.29.17.86.35,1.73a1.29,1.29,0,0,1,.12-.12l.13-.14c.73-1,1.15-1.54,1.26-1.67a12.91,12.91,0,0,1,1.56-1.63,5,5,0,0,1,1.7-1,2.07,2.07,0,0,1,1.23,0,2.11,2.11,0,0,1,1.07.65,2.83,2.83,0,0,1,.59,1l.07.35v0a1.49,1.49,0,0,0,.1.26c0,.11.07.21.1.3a1.64,1.64,0,0,1,.07.28Q111.69,126.26,111.73,126.6Zm-3-4v0s0,0,0,0v0a.08.08,0,0,1,0,0S108.67,122.57,108.68,122.57Z" transform="translate(-1.31 -16.84)"/><path class="cls-6" d="M127,107.85a3.62,3.62,0,0,1,.17,1,6.67,6.67,0,0,1,0,.93c0,.22-.06.56-.12,1,0,.31-.09.77-.18,1.39s-.15,1.08-.19,1.39c-.07.55-.15,1.42-.25,2.59s-.18,2.06-.26,2.66a39.91,39.91,0,0,0-.3,5.23v1c0,.48,0,.85,0,1.1s0,.57.07,1a9.63,9.63,0,0,0,.19,1.06.68.68,0,0,1-.15.72.78.78,0,0,1-.67.17,1,1,0,0,1-.65-.39,6.63,6.63,0,0,1-1-1.93,17.5,17.5,0,0,1-.55-2.46s0-.05,0-.09a.19.19,0,0,0,0-.08q-1,1-1,1a28,28,0,0,1-2.62,2.16,9.77,9.77,0,0,1-1,.63,6.42,6.42,0,0,1-1.19.48,4.77,4.77,0,0,1-1.23.2,2.37,2.37,0,0,1-1.12-.29,2.26,2.26,0,0,1-.89-.92,2.46,2.46,0,0,1-.32-1.16,3.61,3.61,0,0,1,.16-1.19,6.92,6.92,0,0,1,.54-1.15,9.55,9.55,0,0,1,.71-1,10.41,10.41,0,0,1,.77-.89,10.78,10.78,0,0,1,2.45-2,5.46,5.46,0,0,1,2.69-.81,3,3,0,0,1,1.65.48l-.09-1.13a26.08,26.08,0,0,1,.36-5.91,27.21,27.21,0,0,1,.55-2.86,5.6,5.6,0,0,1,1.32-2.75,1.21,1.21,0,0,1,.89-.33,1.48,1.48,0,0,1,.83.36,1.62,1.62,0,0,1,.53.74Zm-5.51,15.43a11.49,11.49,0,0,0,.89-1.1.69.69,0,0,0-.59-.76,2.86,2.86,0,0,0-2,.49,8.76,8.76,0,0,0-2.88,2.53,6.63,6.63,0,0,0-1,1.72c-.11.33-.12.56,0,.67s0-.06,0-.06l.13,0,.15,0a3.2,3.2,0,0,0,1-.19,4.41,4.41,0,0,0,1-.51c.35-.23.63-.43.86-.6s.5-.39.83-.67A16.27,16.27,0,0,0,121.45,123.28Z" transform="translate(-1.31 -16.84)"/><path class="cls-6" d="M131.68,124a4.25,4.25,0,0,0,0,.51c0,.22,0,.37,0,.46a4.72,4.72,0,0,1,0,.53c0,.23-.05.37-.05.41v.44c0,.2,0,.35,0,.45a3.59,3.59,0,0,1-.24,1,.78.78,0,0,1-1.42.09,4.6,4.6,0,0,1-.47-1,2.33,2.33,0,0,1-.1-.46,3.6,3.6,0,0,0-.07-.4s-.06-.22-.13-.52a5.17,5.17,0,0,1-.15-.68c-.06-.39-.1-.69-.14-.88l-.05-.24c0-.16-.07-.41-.11-.73,0-.11,0-.27-.05-.49s0-.38,0-.48a5.26,5.26,0,0,1,.1-2.1,1.13,1.13,0,0,1,1.07-.86,1.58,1.58,0,0,1,.78.17,1.11,1.11,0,0,1,.56.55,5.39,5.39,0,0,1,.41,1.34,8.13,8.13,0,0,1,.14,1.43Zm-2.36-10v-.1a.56.56,0,0,0,0-.1.9.9,0,0,0,0-.12.61.61,0,0,1,0-.16s0-.17,0-.4a1.38,1.38,0,0,1,.11-.37.93.93,0,0,1,.38-.36.79.79,0,0,1,.9.19h0a1.62,1.62,0,0,1,.28.49,1.7,1.7,0,0,1,0,.37,2,2,0,0,1,0,.4.64.64,0,0,0,0,.07.64.64,0,0,1,0,.07,1.49,1.49,0,0,0,0,.24,1.42,1.42,0,0,1,0,.23c0,.12-.06.3-.12.53a.48.48,0,0,1-.41.36.47.47,0,0,1-.5-.18,2.17,2.17,0,0,1-.42-.63A2.65,2.65,0,0,1,129.32,114Z" transform="translate(-1.31 -16.84)"/><path class="cls-6" d="M146.13,126.6a6.53,6.53,0,0,1,.06,1.49,2.52,2.52,0,0,1-.2.87,2.69,2.69,0,0,1-.22.28l-.16.19a.89.89,0,0,1-.73.4.88.88,0,0,1-.78-.32l-.29-.32a2.65,2.65,0,0,1-.33-.41,3.68,3.68,0,0,1-.3-.89,9.81,9.81,0,0,1-.12-1.86c0-.19,0-.74.05-1.65a3.56,3.56,0,0,0,0-.37v-.37s0-.18.06-.49v-.06a1.27,1.27,0,0,0-.06-.39.18.18,0,0,0,0,0l0-.06H143a1.18,1.18,0,0,0-.45.19,4.86,4.86,0,0,0-1.45,1.29A20.79,20.79,0,0,0,139.8,126c-.51.83-.86,1.39-1.06,1.67l-.29.41a2.7,2.7,0,0,1-.3.34,2.06,2.06,0,0,1-.41.29,1.6,1.6,0,0,1-1.67-.08,4.68,4.68,0,0,1-1.58-2.8c-.72-2.6-.72-4.59,0-6a.92.92,0,0,1,.74-.5,1.24,1.24,0,0,1,.9.18,1.5,1.5,0,0,1,.59.76,9.28,9.28,0,0,1,.42,2c0,.06,0,.19,0,.39s0,.33.05.38.06.36.09.56c0,0,0,.07,0,.11a.17.17,0,0,0,0,.08v0c0,.29.17.86.35,1.73a1.29,1.29,0,0,1,.12-.12l.13-.14c.73-1,1.16-1.54,1.26-1.67a12.91,12.91,0,0,1,1.56-1.63,5,5,0,0,1,1.7-1,2.13,2.13,0,0,1,2.3.6,2.83,2.83,0,0,1,.59,1l.07.35v0c0,.07.06.16.1.26s.07.21.1.3a1.64,1.64,0,0,1,.07.28Q146.08,126.26,146.13,126.6Zm-3-4v0l0,0v0a.08.08,0,0,1,0,0S143.07,122.57,143.08,122.57Z" transform="translate(-1.31 -16.84)"/><path class="cls-6" d="M154.91,124.43a4.75,4.75,0,0,1,0,1.84,3.49,3.49,0,0,1-.77,1.58,3,3,0,0,1-1.51.93,3.42,3.42,0,0,1-2.75-.46,4.83,4.83,0,0,1-1.92-2.26,4.39,4.39,0,0,1-.34-1.92,5.26,5.26,0,0,1,.43-1.87,5.78,5.78,0,0,1,1-1.62,3.59,3.59,0,0,1,1.31-1,1.87,1.87,0,0,1,1.45,0,2.21,2.21,0,0,1,.7.42,1.35,1.35,0,0,1,.41.65.41.41,0,0,1,0,.12v.11c.18.21.31.38.4.49A7.5,7.5,0,0,1,154.91,124.43Zm-1.84.91v-.2a3.9,3.9,0,0,0,0-.4,2.51,2.51,0,0,0-.08-.28c0-.15-.09-.31-.15-.47a3.15,3.15,0,0,0-.22-.46l-.21-.38c-.06-.08-.15-.23-.3-.44l-.25-.38-.56-.81-.06,0-.05,0a4,4,0,0,0-.63.75,3.72,3.72,0,0,0-.43.84,4.2,4.2,0,0,0-.26,1.71V125l0,0a.22.22,0,0,1,0,.1.58.58,0,0,1,0,.1l.07.2a2,2,0,0,0,.07.2l0,0s0,0,0,.08l.05.1.11.17a.7.7,0,0,1,.08.12l.07.09.05.07,0,0s0,0,.05.05,0,0,0,0l.07.06.06,0a0,0,0,0,0,0,0,0,0,0,0,1,0,0l.3.17.11,0,.13,0a1.45,1.45,0,0,0,.6,0,1.05,1.05,0,0,0,.56-.22,1.39,1.39,0,0,0,.21-.2l0,.06a.3.3,0,0,1,.06-.09c0-.07.11-.18.19-.34h0a.08.08,0,0,0,0,0,0,0,0,0,0,0,0,.54.54,0,0,0,0-.15,2.91,2.91,0,0,0,.1-.4v-.11Z" transform="translate(-1.31 -16.84)"/><path class="cls-7" d="M141,63.63s2.42-.76.44-2.9c0,0-1.11-1.3-4.94-2.38.41-.36,1.13-1,1.88-1.84l1,.72a1,1,0,0,0,.17.12l.15.07a.89.89,0,0,0,1.09-.62.92.92,0,0,0-.17-.87.82.82,0,0,0-.39-.26h-.08l-.64-.39c1.08-1.34,1.86-2.76,1.24-3.58l-.44-.42s-1.36,2.55-7.38,6.3l-.84-.13q-1.08-.15-2.31-.27l-.22,0-1.94-.3-2-.31c-.72-.11-1.42-.22-2-.3l1.38-.66.94-.45a.74.74,0,0,0,.17-.26c0-.07,0-.14-.11-.16a2.14,2.14,0,0,0-.83.17l-.49.17-1.78.59-1.38-2.33-.21-.34-1-1.74s-.87-1.67-.61.39a18.1,18.1,0,0,0,1.35,4.27l-4.47.94s-.65.28.3.33l4.42,0a4.24,4.24,0,0,0,.27.49h0a2.12,2.12,0,0,0,.12.2,6.72,6.72,0,0,0,1.91,1.71,13.68,13.68,0,0,0,2.1,1.1,58.71,58.71,0,0,1-13,.27s-2.69,0,2.1,1.4l.45,1.3c.19.55,1.28.5,1.35-.07a2.36,2.36,0,0,0-.26-.88,28.64,28.64,0,0,0,5.24.29,14.19,14.19,0,0,0,1,1.58.85.85,0,0,0,.57.27h.26a1.22,1.22,0,0,0,1-.64,1,1,0,0,0-.21-1l-.22-.37c1.37-.1,2.81-.27,4.28-.51.48-.07,1-.16,1.44-.25l1,.3,1.16.32c.86.23,1.8.47,2.83.72a18.31,18.31,0,0,0,2,.39A11.11,11.11,0,0,0,141,63.63Z" transform="translate(-1.31 -16.84)"/></svg>